<mxfile host="65bd71144e" modified="2020-10-28T17:02:32.894Z" agent="5.0 (Windows NT 10.0; Win64; x64) AppleWebKit/537.36 (KHTML, like Gecko) Code/1.50.1 Chrome/83.0.4103.122 Electron/9.2.1 Safari/537.36" version="13.6.5" etag="2gzN5WbgI2PW1hjB2C-R">
    <diagram id="NVXQidD9qr_7CJrD9Jni" name="Page-1">
        <mxGraphModel dx="352" dy="319" grid="1" gridSize="10" guides="1" tooltips="1" connect="1" arrows="1" fold="1" page="1" pageScale="1" pageWidth="827" pageHeight="1169" background="#FF9999" math="0" shadow="0">
            <root>
                <mxCell id="0"/>
                <mxCell id="1" parent="0"/>
                <mxCell id="2" value="" style="ellipse;shape=doubleEllipse;whiteSpace=wrap;html=1;" vertex="1" parent="1">
                    <mxGeometry x="90" y="30" width="100" height="60" as="geometry"/>
                </mxCell>
                <mxCell id="3" value="" style="shape=image;html=1;verticalLabelPosition=bottom;verticalAlign=top;imageAspect=1;aspect=fixed;image=img/clipart/Gear_128x128.png" vertex="1" parent="1">
                    <mxGeometry x="250" y="100" width="52" height="61" as="geometry"/>
                </mxCell>
                <mxCell id="4" value="Cross-Functional Flowchart" style="shape=table;childLayout=tableLayout;rowLines=0;columnLines=0;startSize=40;html=1;whiteSpace=wrap;collapsible=0;recursiveResize=0;expand=0;pointerEvents=0;fontStyle=1;align=center;" vertex="1" parent="1">
                    <mxGeometry y="170" width="400" height="400" as="geometry"/>
                </mxCell>
                <mxCell id="5" value="Actor 1" style="swimlane;horizontal=0;points=[[0,0.5],[1,0.5]];portConstraint=eastwest;startSize=40;html=1;whiteSpace=wrap;collapsible=0;recursiveResize=0;expand=0;pointerEvents=0;fontStyle=1" vertex="1" parent="4">
                    <mxGeometry y="40" width="400" height="120" as="geometry"/>
                </mxCell>
                <mxCell id="6" value="Phase 1" style="swimlane;connectable=0;startSize=40;html=1;whiteSpace=wrap;collapsible=0;recursiveResize=0;expand=0;pointerEvents=0;" vertex="1" parent="5">
                    <mxGeometry x="40" width="120" height="120" as="geometry"/>
                </mxCell>
                <mxCell id="17" value="texto" style="text;html=1;align=center;verticalAlign=middle;resizable=0;points=[];autosize=1;" vertex="1" parent="6">
                    <mxGeometry x="30" y="70" width="40" height="20" as="geometry"/>
                </mxCell>
                <mxCell id="7" value="Phase 2" style="swimlane;connectable=0;startSize=40;html=1;whiteSpace=wrap;collapsible=0;recursiveResize=0;expand=0;pointerEvents=0;" vertex="1" parent="5">
                    <mxGeometry x="160" width="120" height="120" as="geometry"/>
                </mxCell>
                <mxCell id="8" value="Phase 3" style="swimlane;connectable=0;startSize=40;html=1;whiteSpace=wrap;collapsible=0;recursiveResize=0;expand=0;pointerEvents=0;" vertex="1" parent="5">
                    <mxGeometry x="280" width="120" height="120" as="geometry"/>
                </mxCell>
                <mxCell id="9" value="Actor 2" style="swimlane;horizontal=0;points=[[0,0.5],[1,0.5]];portConstraint=eastwest;startSize=40;html=1;whiteSpace=wrap;collapsible=0;recursiveResize=0;expand=0;pointerEvents=0;" vertex="1" parent="4">
                    <mxGeometry y="160" width="400" height="120" as="geometry"/>
                </mxCell>
                <mxCell id="10" value="" style="swimlane;connectable=0;startSize=0;html=1;whiteSpace=wrap;collapsible=0;recursiveResize=0;expand=0;pointerEvents=0;" vertex="1" parent="9">
                    <mxGeometry x="40" width="120" height="120" as="geometry"/>
                </mxCell>
                <mxCell id="11" value="" style="swimlane;connectable=0;startSize=0;html=1;whiteSpace=wrap;collapsible=0;recursiveResize=0;expand=0;pointerEvents=0;" vertex="1" parent="9">
                    <mxGeometry x="160" width="120" height="120" as="geometry"/>
                </mxCell>
                <mxCell id="12" value="" style="swimlane;connectable=0;startSize=0;html=1;whiteSpace=wrap;collapsible=0;recursiveResize=0;expand=0;pointerEvents=0;" vertex="1" parent="9">
                    <mxGeometry x="280" width="120" height="120" as="geometry"/>
                </mxCell>
                <mxCell id="13" value="Actor 3" style="swimlane;horizontal=0;points=[[0,0.5],[1,0.5]];portConstraint=eastwest;startSize=40;html=1;whiteSpace=wrap;collapsible=0;recursiveResize=0;expand=0;pointerEvents=0;" vertex="1" parent="4">
                    <mxGeometry y="280" width="400" height="120" as="geometry"/>
                </mxCell>
                <mxCell id="14" value="" style="swimlane;connectable=0;startSize=0;html=1;whiteSpace=wrap;collapsible=0;recursiveResize=0;expand=0;pointerEvents=0;" vertex="1" parent="13">
                    <mxGeometry x="40" width="120" height="120" as="geometry"/>
                </mxCell>
                <mxCell id="15" value="" style="swimlane;connectable=0;startSize=0;html=1;whiteSpace=wrap;collapsible=0;recursiveResize=0;expand=0;pointerEvents=0;" vertex="1" parent="13">
                    <mxGeometry x="160" width="120" height="120" as="geometry"/>
                </mxCell>
                <mxCell id="16" value="" style="swimlane;connectable=0;startSize=0;html=1;whiteSpace=wrap;collapsible=0;recursiveResize=0;expand=0;pointerEvents=0;" vertex="1" parent="13">
                    <mxGeometry x="280" width="120" height="120" as="geometry"/>
                </mxCell>
                <mxCell id="19" value="" style="html=1;whiteSpace=wrap;shape=isoCube2;backgroundOutline=1;isoAngle=15;" vertex="1" parent="1">
                    <mxGeometry x="55" y="100" width="75" height="50" as="geometry"/>
                </mxCell>
                <mxCell id="20" value="" style="endArrow=classic;startArrow=classic;html=1;exitX=0;exitY=0;exitDx=75;exitDy=18.0059069310087;exitPerimeter=0;" edge="1" parent="1" source="19">
                    <mxGeometry width="50" height="50" relative="1" as="geometry">
                        <mxPoint x="180" y="210" as="sourcePoint"/>
                        <mxPoint x="240" y="140" as="targetPoint"/>
                    </mxGeometry>
                </mxCell>
                <mxCell id="21" value="" style="shape=datastore;whiteSpace=wrap;html=1;" vertex="1" parent="1">
                    <mxGeometry x="140" y="580" width="60" height="80" as="geometry"/>
                </mxCell>
            </root>
        </mxGraphModel>
    </diagram>
</mxfile>